<svg width="40" height="40" viewBox="0 0 40 40" fill="none" xmlns="http://www.w3.org/2000/svg">
<path d="M33.3398 17.793C34.3555 18.2747 35.2734 18.8802 36.0938 19.6094C36.9141 20.3385 37.6172 21.1654 38.2031 22.0898C38.7891 23.0143 39.2318 24.0039 39.5312 25.0586C39.8307 26.1133 39.987 27.207 40 28.3398C40 29.9414 39.694 31.4518 39.082 32.8711C38.4701 34.2904 37.6367 35.5273 36.582 36.582C35.5273 37.6367 34.2904 38.4701 32.8711 39.082C31.4518 39.694 29.9414 40 28.3398 40C27.207 40 26.1133 39.8438 25.0586 39.5312C24.0039 39.2188 23.0208 38.776 22.1094 38.2031C21.1979 37.6302 20.3711 36.9336 19.6289 36.1133C18.8867 35.293 18.2747 34.3685 17.793 33.3398H0V3.33984H6.66016V0H10V3.33984H23.3398V0H26.6602V3.33984H33.3398V17.793ZM3.33984 10H30V6.66016H3.33984V10ZM16.7773 30C16.6992 29.4531 16.6602 28.8997 16.6602 28.3398C16.6602 26.7253 16.9661 25.2083 17.5781 23.7891C18.1901 22.3698 19.0234 21.1328 20.0781 20.0781C21.1328 19.0234 22.3698 18.1901 23.7891 17.5781C25.2083 16.9661 26.7253 16.6602 28.3398 16.6602C28.8997 16.6602 29.4531 16.6992 30 16.7773V13.3398H3.33984V30H16.7773ZM28.3398 36.6602C29.4857 36.6602 30.5599 36.4453 31.5625 36.0156C32.5651 35.5859 33.4505 34.987 34.2188 34.2188C34.987 33.4505 35.5794 32.5716 35.9961 31.582C36.4128 30.5924 36.6341 29.5117 36.6602 28.3398C36.6602 27.194 36.4453 26.1133 36.0156 25.0977C35.5859 24.082 34.9935 23.1966 34.2383 22.4414C33.4831 21.6862 32.5977 21.0938 31.582 20.6641C30.5664 20.2344 29.4857 20.013 28.3398 20C27.181 20 26.1003 20.2148 25.0977 20.6445C24.0951 21.0742 23.2096 21.6732 22.4414 22.4414C21.6732 23.2096 21.0807 24.0951 20.6641 25.0977C20.2474 26.1003 20.026 27.181 20 28.3398C20 29.4987 20.2148 30.5794 20.6445 31.582C21.0742 32.5846 21.6732 33.4635 22.4414 34.2188C23.2096 34.974 24.0951 35.5664 25.0977 35.9961C26.1003 36.4258 27.181 36.6471 28.3398 36.6602ZM30 26.6602H33.3398V30H26.6602V23.3398H30V26.6602Z" fill="#5DD3ED"/>
</svg>
