<svg width="44" height="44" viewBox="0 0 44 44" fill="none" xmlns="http://www.w3.org/2000/svg">
<mask id="mask0_1_28" style="mask-type:luminance" maskUnits="userSpaceOnUse" x="0" y="0" width="44" height="44">
<path d="M29.7778 29.7778H39.7778C40.3672 29.7778 40.9324 29.5437 41.3491 29.1269C41.7659 28.7102 42 28.1449 42 27.5556V4.22222C42 3.63285 41.7659 3.06762 41.3491 2.65087C40.9324 2.23413 40.3672 2 39.7778 2H16.4445C15.8551 2 15.2899 2.23413 14.8731 2.65087C14.4564 3.06762 14.2222 3.63285 14.2222 4.22222V14.2222" stroke="white" stroke-width="4" stroke-linecap="round" stroke-linejoin="round"/>
<path d="M14.2222 14.2222H4.22222C3.63285 14.2222 3.06762 14.4563 2.65087 14.8731C2.23413 15.2898 2 15.8551 2 16.4444V39.7778C2 40.3671 2.23413 40.9324 2.65087 41.3491C3.06762 41.7659 3.63285 42 4.22222 42H27.5556C28.1449 42 28.7102 41.7659 29.1269 41.3491C29.5437 40.9324 29.7778 40.3671 29.7778 39.7778V29.7778" stroke="white" stroke-width="4" stroke-linecap="round" stroke-linejoin="round"/>
<path d="M27.5555 14.2222H16.4444C15.2171 14.2222 14.2222 15.2171 14.2222 16.4444V27.5556C14.2222 28.7829 15.2171 29.7778 16.4444 29.7778H27.5555C28.7828 29.7778 29.7777 28.7829 29.7777 27.5556V16.4444C29.7777 15.2171 28.7828 14.2222 27.5555 14.2222Z" fill="white" stroke="white" stroke-width="4" stroke-linecap="round" stroke-linejoin="round"/>
</mask>
<g mask="url(#mask0_1_28)">
<path d="M-4.66663 -4.66666H48.6667V48.6667H-4.66663V-4.66666Z" fill="#5DD3ED"/>
</g>
</svg>
